<svg width="20" height="20" viewBox="0 0 20 20" fill="none" xmlns="http://www.w3.org/2000/svg">
<path fill-rule="evenodd" clip-rule="evenodd" d="M13.6366 7.2725C13.6366 8.23693 13.2535 9.16185 12.5715 9.8438C11.8896 10.5258 10.9647 10.9089 10.0002 10.9089C9.03581 10.9089 8.11088 10.5258 7.42893 9.8438C6.74698 9.16185 6.36387 8.23693 6.36387 7.2725C6.36387 6.30808 6.74698 5.38315 7.42893 4.7012C8.11088 4.01925 9.03581 3.63613 10.0002 3.63613C10.9647 3.63613 11.8896 4.01925 12.5715 4.7012C13.2535 5.38315 13.6366 6.30808 13.6366 7.2725ZM11.8184 7.2725C11.8184 7.75471 11.6269 8.21718 11.2859 8.55815C10.9449 8.89913 10.4824 9.09068 10.0002 9.09068C9.51802 9.09068 9.05556 8.89913 8.71458 8.55815C8.37361 8.21718 8.18205 7.75471 8.18205 7.2725C8.18205 6.79029 8.37361 6.32783 8.71458 5.98685C9.05556 5.64588 9.51802 5.45432 10.0002 5.45432C10.4824 5.45432 10.9449 5.64588 11.2859 5.98685C11.6269 6.32783 11.8184 6.79029 11.8184 7.2725Z" fill="#484343"/>
<path fill-rule="evenodd" clip-rule="evenodd" d="M10 0C4.47728 0 0 4.47728 0 10C0 15.5227 4.47728 20 10 20C15.5227 20 20 15.5227 20 10C20 4.47728 15.5227 0 10 0ZM1.81818 10C1.81818 11.9 2.46637 13.6491 3.55273 15.0382C4.31567 14.0363 5.29991 13.2243 6.42858 12.6657C7.55725 12.1072 8.79977 11.8171 10.0591 11.8182C11.3021 11.817 12.529 12.0996 13.6463 12.6444C14.7636 13.1891 15.7418 13.9818 16.5064 14.9618C17.2941 13.9287 17.8244 12.7229 18.0536 11.4442C18.2827 10.1654 18.204 8.85049 17.8241 7.60817C17.4442 6.36585 16.7738 5.23187 15.8686 4.30004C14.9634 3.36821 13.8493 2.66533 12.6185 2.24956C11.3877 1.83378 10.0756 1.71707 8.79079 1.90907C7.50593 2.10107 6.28527 2.59627 5.22979 3.35369C4.17432 4.11111 3.31438 5.10898 2.72112 6.26473C2.12786 7.42048 1.81835 8.70089 1.81818 10ZM10 18.1818C8.12178 18.1847 6.30025 17.5385 4.84364 16.3527C5.42994 15.5134 6.21031 14.8281 7.11836 14.3552C8.02641 13.8822 9.03527 13.6356 10.0591 13.6364C11.0702 13.6356 12.0668 13.876 12.9663 14.3377C13.8658 14.7994 14.6422 15.469 15.2309 16.2909C13.763 17.5152 11.9114 18.1845 10 18.1818Z" fill="#484343"/>
</svg>
