<svg width="24" height="18" viewBox="0 0 24 18" fill="none" xmlns="http://www.w3.org/2000/svg">
<g clip-path="url(#clip0_2086_1677)">
<path d="M2.21276 10.5451C1.92517 9.52636 1.92517 8.47377 2.21276 7.45507C3.32276 7.55257 4.29276 7.27732 4.60876 6.70432C4.92576 6.13057 4.50076 5.42182 3.62276 4.90207C4.3798 4.02931 5.37209 3.2851 6.53576 2.71732C7.22776 3.37507 8.17376 3.69457 8.93876 3.45682C9.70376 3.21907 10.0708 2.49232 9.93976 1.65982C11.298 1.44412 12.7015 1.44412 14.0598 1.65982C13.9298 2.49232 14.2968 3.21982 15.0608 3.45682C15.8258 3.69457 16.7708 3.37582 17.4638 2.71732C18.6274 3.2851 19.6197 4.02931 20.3768 4.90207C19.4998 5.42107 19.0738 6.13057 19.3908 6.70432C19.7078 7.27807 20.6768 7.55332 21.7868 7.45507C22.0744 8.47377 22.0744 9.52636 21.7868 10.5451C20.6768 10.4476 19.7068 10.7228 19.3908 11.2958C19.0738 11.8696 19.4988 12.5783 20.3768 13.0981C19.6197 13.9708 18.6274 14.715 17.4638 15.2828C16.7718 14.6251 15.8258 14.3056 15.0608 14.5433C14.2958 14.7811 13.9288 15.5078 14.0598 16.3403C12.7015 16.556 11.298 16.556 9.93976 16.3403C10.0698 15.5078 9.70276 14.7803 8.93876 14.5433C8.17376 14.3056 7.22876 14.6243 6.53576 15.2828C5.37209 14.715 4.3798 13.9708 3.62276 13.0981C4.49976 12.5791 4.92576 11.8696 4.60876 11.2958C4.29176 10.7221 3.32276 10.4468 2.21276 10.5451ZM3.99976 9.15757C5.09976 9.38632 6.00676 9.90907 6.45676 10.7221C6.90576 11.5358 6.75676 12.3871 6.19476 13.1311C6.29076 13.2076 6.38976 13.2818 6.49176 13.3538C7.48476 12.9323 8.61876 12.8213 9.70376 13.1573C10.7878 13.4948 11.4848 14.1751 11.7898 15.0001C11.9298 15.0031 12.0698 15.0031 12.2098 15.0001C12.5148 14.1751 13.2118 13.4948 14.2958 13.1573C15.3808 12.8206 16.5158 12.9323 17.5078 13.3538C17.6098 13.2818 17.7088 13.2076 17.8048 13.1311C17.2428 12.3863 17.0948 11.5358 17.5428 10.7221C17.9928 9.90907 18.8998 9.38632 19.9998 9.15757C20.0038 9.05257 20.0038 8.94757 19.9998 8.84257C18.8998 8.61382 17.9928 8.09107 17.5428 7.27807C17.0938 6.46432 17.2428 5.61307 17.8048 4.86907C17.7084 4.79286 17.6094 4.71859 17.5078 4.64632C16.5148 5.06782 15.3808 5.17882 14.2958 4.84282C13.2118 4.50532 12.5148 3.82507 12.2098 3.00007C12.0698 2.99729 11.9297 2.99729 11.7898 3.00007C11.4848 3.82507 10.7878 4.50532 9.70376 4.84282C8.61876 5.17957 7.48376 5.06782 6.49176 4.64632C6.38976 4.71832 6.29076 4.79257 6.19476 4.86907C6.75676 5.61382 6.90476 6.46432 6.45676 7.27807C6.00676 8.09107 5.09976 8.61382 3.99976 8.84257C3.99576 8.94757 3.99576 9.05257 3.99976 9.15757ZM11.9998 11.2501C11.2041 11.2501 10.4411 11.013 9.87844 10.5911C9.31583 10.1691 8.99976 9.5968 8.99976 9.00007C8.99976 8.40333 9.31583 7.83103 9.87844 7.40908C10.4411 6.98712 11.2041 6.75007 11.9998 6.75007C12.7954 6.75007 13.5585 6.98712 14.1211 7.40908C14.6837 7.83103 14.9998 8.40333 14.9998 9.00007C14.9998 9.5968 14.6837 10.1691 14.1211 10.5911C13.5585 11.013 12.7954 11.2501 11.9998 11.2501ZM11.9998 9.75007C12.265 9.75007 12.5193 9.67105 12.7069 9.5304C12.8944 9.38974 12.9998 9.19898 12.9998 9.00007C12.9998 8.80115 12.8944 8.61039 12.7069 8.46974C12.5193 8.32908 12.265 8.25007 11.9998 8.25007C11.7345 8.25007 11.4802 8.32908 11.2927 8.46974C11.1051 8.61039 10.9998 8.80115 10.9998 9.00007C10.9998 9.19898 11.1051 9.38974 11.2927 9.5304C11.4802 9.67105 11.7345 9.75007 11.9998 9.75007Z" fill="black"/>
</g>
<defs>
<clipPath id="clip0_2086_1677">
<rect width="24" height="18" fill="white"/>
</clipPath>
</defs>
</svg>
