<svg width="27" height="21" viewBox="0 0 27 21" fill="none" xmlns="http://www.w3.org/2000/svg">
<g clip-path="url(#clip0_11_3855)">
<path d="M2.4589 12.3024C2.13935 11.1139 2.13935 9.88591 2.4589 8.69741C3.69223 8.81116 4.77001 8.49004 5.12112 7.82154C5.47334 7.15216 5.00112 6.32529 4.02556 5.71891C4.86672 4.7007 5.96926 3.83245 7.26223 3.17004C8.03112 3.93741 9.08223 4.31016 9.93223 4.03279C10.7822 3.75541 11.19 2.90754 11.0445 1.93629C12.5536 1.68465 14.113 1.68465 15.6222 1.93629C15.4778 2.90754 15.8856 3.75629 16.7345 4.03279C17.5845 4.31016 18.6345 3.93829 19.4045 3.17004C20.6974 3.83245 21.8 4.7007 22.6411 5.71891C21.6667 6.32441 21.1933 7.15216 21.5456 7.82154C21.8978 8.49091 22.9745 8.81204 24.2078 8.69741C24.5273 9.88591 24.5273 11.1139 24.2078 12.3024C22.9745 12.1887 21.8967 12.5098 21.5456 13.1783C21.1933 13.8477 21.6656 14.6745 22.6411 15.2809C21.8 16.2991 20.6974 17.1674 19.4045 17.8298C18.6356 17.0624 17.5845 16.6897 16.7345 16.967C15.8845 17.2444 15.4767 18.0923 15.6222 19.0635C14.113 19.3152 12.5536 19.3152 11.0445 19.0635C11.1889 18.0923 10.7811 17.2435 9.93223 16.967C9.08223 16.6897 8.03223 17.0615 7.26223 17.8298C5.96926 17.1674 4.86672 16.2991 4.02556 15.2809C5.00001 14.6754 5.47334 13.8477 5.12112 13.1783C4.7689 12.5089 3.69223 12.1878 2.4589 12.3024ZM4.44445 10.6837C5.66667 10.9505 6.67445 11.5604 7.17445 12.5089C7.67334 13.4583 7.50778 14.4514 6.88334 15.3194C6.99001 15.4087 7.10001 15.4953 7.21334 15.5793C8.31667 15.0875 9.57667 14.958 10.7822 15.35C11.9867 15.7438 12.7611 16.5374 13.1 17.4999C13.2556 17.5034 13.4111 17.5034 13.5667 17.4999C13.9056 16.5374 14.68 15.7438 15.8845 15.35C17.09 14.9572 18.3511 15.0875 19.4533 15.5793C19.5667 15.4953 19.6767 15.4087 19.7833 15.3194C19.1589 14.4505 18.9944 13.4583 19.4922 12.5089C19.9922 11.5604 21 10.9505 22.2222 10.6837C22.2267 10.5612 22.2267 10.4387 22.2222 10.3162C21 10.0493 19.9922 9.43941 19.4922 8.49091C18.9933 7.54154 19.1589 6.54841 19.7833 5.68041C19.6763 5.59151 19.5662 5.50486 19.4533 5.42054C18.35 5.91229 17.09 6.04179 15.8845 5.64979C14.68 5.25604 13.9056 4.46241 13.5667 3.49991C13.4111 3.49667 13.2555 3.49667 13.1 3.49991C12.7611 4.46241 11.9867 5.25604 10.7822 5.64979C9.57667 6.04266 8.31556 5.91229 7.21334 5.42054C7.10001 5.50454 6.99001 5.59116 6.88334 5.68041C7.50778 6.54929 7.67223 7.54154 7.17445 8.49091C6.67445 9.43941 5.66667 10.0493 4.44445 10.3162C4.44001 10.4387 4.44001 10.5612 4.44445 10.6837ZM13.3333 13.1249C12.4493 13.1249 11.6014 12.8484 10.9763 12.3561C10.3512 11.8638 10 11.1961 10 10.4999C10 9.80372 10.3512 9.13604 10.9763 8.64376C11.6014 8.15148 12.4493 7.87491 13.3333 7.87491C14.2174 7.87491 15.0652 8.15148 15.6904 8.64376C16.3155 9.13604 16.6667 9.80372 16.6667 10.4999C16.6667 11.1961 16.3155 11.8638 15.6904 12.3561C15.0652 12.8484 14.2174 13.1249 13.3333 13.1249ZM13.3333 11.3749C13.628 11.3749 13.9106 11.2827 14.119 11.1186C14.3274 10.9545 14.4445 10.732 14.4445 10.4999C14.4445 10.2678 14.3274 10.0453 14.119 9.8812C13.9106 9.7171 13.628 9.62491 13.3333 9.62491C13.0387 9.62491 12.756 9.7171 12.5477 9.8812C12.3393 10.0453 12.2222 10.2678 12.2222 10.4999C12.2222 10.732 12.3393 10.9545 12.5477 11.1186C12.756 11.2827 13.0387 11.3749 13.3333 11.3749Z" fill="black"/>
</g>
<defs>
<clipPath id="clip0_11_3855">
<rect width="26.6667" height="21" rx="10" fill="white"/>
</clipPath>
</defs>
</svg>
