<svg width="31" height="31" viewBox="0 0 31 31" fill="none" xmlns="http://www.w3.org/2000/svg">
<g clip-path="url(#clip0_10_2422)">
<path d="M28.4167 25.8335H2.58334V23.2502H3.87501V14.2485C3.87501 7.8057 9.08043 2.5835 15.5 2.5835C21.9196 2.5835 27.125 7.8057 27.125 14.2485V23.2502H28.4167V25.8335ZM6.45834 23.2502H24.5417V14.2485C24.5417 9.233 20.4936 5.16683 15.5 5.16683C10.5064 5.16683 6.45834 9.233 6.45834 14.2485V23.2502ZM12.2708 27.1252H18.7292C18.7292 27.9816 18.389 28.8029 17.7834 29.4085C17.1778 30.0141 16.3564 30.3543 15.5 30.3543C14.6436 30.3543 13.8222 30.0141 13.2166 29.4085C12.6111 28.8029 12.2708 27.9816 12.2708 27.1252Z" fill="black"/>
</g>
<defs>
<clipPath id="clip0_10_2422">
<rect width="31" height="31" fill="white"/>
</clipPath>
</defs>
</svg>
