<svg width="100" height="100" viewBox="0 0 100 100" fill="none" xmlns="http://www.w3.org/2000/svg">
<g clip-path="url(#clip0_2046_920)">
<path d="M49.4429 61.3927L50 61.6155L50.5571 61.3927L98.5 42.2155V80C98.5 82.2543 97.6045 84.4163 96.0104 86.0104C94.4163 87.6045 92.2543 88.5 90 88.5H10C7.74566 88.5 5.58365 87.6045 3.98959 86.0104C2.39553 84.4163 1.5 82.2543 1.5 80V42.2155L49.4429 61.3927Z" fill="#AC0491" fill-opacity="0.72"/>
<path d="M49.4429 61.3927L50 61.6155L50.5571 61.3927L98.5 42.2155V80C98.5 82.2543 97.6045 84.4163 96.0104 86.0104C94.4163 87.6045 92.2543 88.5 90 88.5H10C7.74566 88.5 5.58365 87.6045 3.98959 86.0104C2.39553 84.4163 1.5 82.2543 1.5 80V42.2155L49.4429 61.3927Z" stroke="black" stroke-width="3"/>
<path d="M49.4429 61.3927L50 61.6155L50.5571 61.3927L98.5 42.2155V80C98.5 82.2543 97.6045 84.4163 96.0104 86.0104C94.4163 87.6045 92.2543 88.5 90 88.5H10C7.74566 88.5 5.58365 87.6045 3.98959 86.0104C2.39553 84.4163 1.5 82.2543 1.5 80V42.2155L49.4429 61.3927Z" stroke="#AC0491" stroke-opacity="0.72" stroke-width="3"/>
<path d="M3.98959 13.9896C5.58365 12.3955 7.74566 11.5 10 11.5H90C92.2543 11.5 94.4163 12.3955 96.0104 13.9896C97.6045 15.5837 98.5 17.7457 98.5 20V28.9845L50 48.3844L1.5 28.9844V20C1.5 17.7457 2.39553 15.5837 3.98959 13.9896Z" fill="#B5C7F3" fill-opacity="0.77"/>
<path d="M3.98959 13.9896C5.58365 12.3955 7.74566 11.5 10 11.5H90C92.2543 11.5 94.4163 12.3955 96.0104 13.9896C97.6045 15.5837 98.5 17.7457 98.5 20V28.9845L50 48.3844L1.5 28.9844V20C1.5 17.7457 2.39553 15.5837 3.98959 13.9896Z" stroke="black" stroke-width="3"/>
<path d="M3.98959 13.9896C5.58365 12.3955 7.74566 11.5 10 11.5H90C92.2543 11.5 94.4163 12.3955 96.0104 13.9896C97.6045 15.5837 98.5 17.7457 98.5 20V28.9845L50 48.3844L1.5 28.9844V20C1.5 17.7457 2.39553 15.5837 3.98959 13.9896Z" stroke="#E2E9FC" stroke-width="3"/>
</g>
<defs>
<clipPath id="clip0_2046_920">
<rect width="100" height="100" fill="white"/>
</clipPath>
</defs>
</svg>
