<svg width="338" height="200" viewBox="0 0 338 200" fill="none" xmlns="http://www.w3.org/2000/svg">
<rect width="338" height="200" rx="50" fill="#2F2D51"/>
<mask id="mask0_2052_4049" style="mask-type:luminance" maskUnits="userSpaceOnUse" x="0" y="0" width="338" height="200">
<rect width="338" height="200" rx="50" fill="white"/>
</mask>
<g mask="url(#mask0_2052_4049)">
<path d="M-9.79688 105.676L51.0978 82.3586L75.6237 95.1808L105.946 94.0174L133.586 105.676L163.386 83.6063L183.252 97.1104L238.101 70.222C238.101 70.222 265.324 82.3586 265.324 82.3586C265.324 82.3586 283.495 70.222 283.495 70.222L347.797 54.2373" stroke="#3E3C6D" stroke-width="10" stroke-linecap="round" stroke-linejoin="round"/>
<path d="M-9.79688 105.676L51.0978 82.3586L75.6237 95.1808L105.946 94.0174L133.586 105.676L163.386 83.6063L183.252 97.1104L238.101 70.222C238.101 70.222 265.324 82.3586 265.324 82.3586C265.324 82.3586 283.495 70.222 283.495 70.222L347.797 54.2373" stroke="#52B9FB" stroke-width="10" stroke-linecap="round" stroke-linejoin="round" stroke-dasharray="554 2000"/>
<path d="M-9.79688 105.676L51.0978 82.3586L75.6237 95.1808L105.946 94.0174L133.586 105.676L163.386 83.6063L183.252 97.1104L238.101 70.222C238.101 70.222 265.324 82.3586 265.324 82.3586C265.324 82.3586 283.495 70.222 283.495 70.222L347.797 54.2373" stroke="#EC5D50" stroke-width="10" stroke-linecap="round" stroke-linejoin="round" stroke-dasharray="355 2000"/>
</g>
<path d="M33.0821 40.7665H52.6763C54.9308 40.7665 56.7585 39.9233 56.7585 38.8832C56.7585 37.8432 54.9308 37 52.6763 37H33.0821C30.8276 37 29 37.8432 29 38.8832C29 39.9233 30.8276 40.7665 33.0821 40.7665Z" fill="#1AB8FE"/>
<path fill-rule="evenodd" clip-rule="evenodd" d="M38.0068 54.339H36.8246C36.6896 54.339 36.5808 54.3234 36.498 54.2923C36.4153 54.2611 36.3522 54.2225 36.3086 54.1763L35.5249 53.2181H31.4754L30.6916 54.1763C30.6568 54.2164 30.5958 54.2536 30.5088 54.2877C30.4217 54.3219 30.3128 54.339 30.1822 54.339H29L32.7294 50H34.2774L38.0068 54.339ZM35.1134 52.7119L33.8202 51.1269C33.7157 51.0044 33.609 50.8487 33.5002 50.6599C33.4523 50.7543 33.4 50.8412 33.3434 50.9205C33.2868 50.9999 33.2346 51.0697 33.1867 51.13L31.8934 52.7119H35.1134ZM42.0302 54.339L44.708 51.2655H43.6108C43.5106 51.2655 43.4257 51.2776 43.356 51.3017C43.2864 51.3258 43.2385 51.3559 43.2124 51.3921L41.7101 53.1819C41.6492 53.2683 41.5937 53.3522 41.5436 53.4335C41.4935 53.5149 41.4511 53.5977 41.4162 53.6821C41.3814 53.5977 41.34 53.5144 41.2921 53.432C41.2442 53.3496 41.1898 53.2663 41.1288 53.1819L39.6527 51.3921C39.631 51.3579 39.5842 51.3283 39.5123 51.3032C39.4405 51.2781 39.3501 51.2655 39.2413 51.2655H38.0852L40.7631 54.339H42.0302ZM50.0377 52.4558C50.0377 52.3473 50.0039 52.2463 49.9364 52.1529C49.8689 52.0595 49.7699 51.9782 49.6393 51.9089C49.5086 51.8396 49.3464 51.7853 49.1527 51.7461C48.9589 51.707 48.7358 51.6874 48.4832 51.6874C47.9737 51.6874 47.5732 51.7547 47.2814 51.8893C46.9897 52.0239 46.8046 52.2127 46.7263 52.4558H50.0377ZM46.8634 53.307C46.7632 53.1794 46.7045 53.0282 46.687 52.8535H50.9651C51.0914 52.8535 51.1785 52.8364 51.2264 52.8023C51.2743 52.7681 51.2982 52.7008 51.2982 52.6004C51.2982 52.3814 51.2275 52.1861 51.086 52.0143C50.9444 51.8426 50.7474 51.6974 50.4949 51.5789C50.2423 51.4604 49.9419 51.3705 49.5935 51.3092C49.2452 51.248 48.8664 51.2173 48.4571 51.2173C47.965 51.2173 47.5242 51.257 47.1344 51.3363C46.7447 51.4157 46.4138 51.5237 46.1417 51.6603C45.8695 51.7969 45.6605 51.9576 45.5147 52.1424C45.3688 52.3272 45.2959 52.526 45.2959 52.739C45.2959 53.0061 45.3775 53.2422 45.5408 53.4471C45.7041 53.652 45.9305 53.8237 46.2201 53.9623C46.5096 54.1009 46.8514 54.2059 47.2455 54.2772C47.6395 54.3485 48.0674 54.3842 48.5289 54.3842C48.764 54.3842 49.0057 54.3756 49.2539 54.3586C49.5021 54.3415 49.7437 54.3134 49.9789 54.2742C50.214 54.235 50.4361 54.1843 50.6451 54.122C50.8541 54.0598 51.0413 53.9834 51.2068 53.893L50.8084 53.655C50.7474 53.6148 50.6603 53.5947 50.5471 53.5947C50.46 53.5947 50.3642 53.6093 50.2597 53.6384C50.1552 53.6675 50.029 53.6997 49.8809 53.7348C49.7329 53.77 49.5587 53.8021 49.3584 53.8313C49.1581 53.8604 48.9208 53.8749 48.6465 53.8749C48.3591 53.8749 48.0989 53.8544 47.866 53.8132C47.633 53.772 47.4327 53.7092 47.2651 53.6249C47.0974 53.5405 46.9635 53.4345 46.8634 53.307ZM53.9303 51.835C54.1393 51.6402 54.3919 51.487 54.688 51.3755C54.9841 51.264 55.3389 51.2083 55.7526 51.2083C55.8963 51.2083 56.0313 51.2158 56.1575 51.2309C56.2838 51.2459 56.397 51.2685 56.4972 51.2987L56.3992 51.7868C56.3818 51.821 56.3546 51.8446 56.3176 51.8576C56.2806 51.8707 56.2316 51.8772 56.1706 51.8772C56.1053 51.8772 56.0117 51.8717 55.8898 51.8606C55.7678 51.8496 55.6394 51.8441 55.5044 51.8441C55.3085 51.8441 55.1354 51.8571 54.9852 51.8832C54.8349 51.9093 54.6999 51.9475 54.5802 51.9977C54.4605 52.048 54.3549 52.1092 54.2634 52.1815C54.172 52.2539 54.0871 52.3362 54.0087 52.4286V54.339H52.6044V51.2655H53.4209C53.5689 51.2655 53.6712 51.2781 53.7279 51.3032C53.7845 51.3283 53.8236 51.372 53.8454 51.4343L53.9303 51.835ZM59.7172 53.0508C60.0612 53.0217 60.4835 53.0031 60.9843 52.9951V53.5646C60.7361 53.6851 60.4803 53.777 60.2168 53.8403C59.9534 53.9036 59.6388 53.9352 59.273 53.9352C59.1294 53.9352 58.9976 53.9277 58.8779 53.9126C58.7582 53.8975 58.6537 53.8734 58.5644 53.8403C58.4751 53.8071 58.4055 53.765 58.3554 53.7137C58.3053 53.6625 58.2803 53.6007 58.2803 53.5284C58.2803 53.4541 58.3271 53.3858 58.4207 53.3235C58.5143 53.2613 58.6678 53.2075 58.8812 53.1623C59.0945 53.1171 59.3732 53.08 59.7172 53.0508ZM57.2613 51.6934C58.0146 51.37 58.9116 51.2083 59.9523 51.2083C60.3354 51.2083 60.6762 51.2369 60.9744 51.2942C61.2727 51.3514 61.5231 51.4323 61.7255 51.5367C61.928 51.6412 62.0826 51.7652 62.1893 51.9089C62.296 52.0525 62.3493 52.2117 62.3493 52.3864V54.339H61.7223C61.5873 54.339 61.485 54.3294 61.4153 54.3104C61.3456 54.2913 61.2869 54.2526 61.239 54.1944L61.1018 53.9443C60.932 54.0146 60.7643 54.0773 60.5989 54.1326C60.4334 54.1878 60.2625 54.2345 60.0862 54.2727C59.9098 54.3109 59.7204 54.3395 59.5179 54.3586C59.3155 54.3777 59.0923 54.3872 58.8485 54.3872C58.5785 54.3872 58.327 54.3701 58.0941 54.336C57.8611 54.3018 57.6598 54.2501 57.4899 54.1808C57.3201 54.1115 57.1862 54.0256 57.0883 53.9232C56.9903 53.8207 56.9413 53.7002 56.9413 53.5616C56.9413 53.4431 57.0099 53.3276 57.147 53.2151C57.2842 53.1026 57.5106 53.0016 57.8263 52.9122C58.142 52.8229 58.5578 52.749 59.0738 52.6908C59.5898 52.6325 60.2266 52.5994 60.9842 52.5913V52.3864C60.9842 52.1655 60.8819 52.0008 60.6773 51.8923C60.4726 51.7838 60.1722 51.7296 59.7759 51.7296C59.506 51.7296 59.2795 51.7451 59.0967 51.7763C58.9138 51.8074 58.7549 51.8411 58.6199 51.8772C58.4849 51.9134 58.3651 51.947 58.2606 51.9782C58.1561 52.0093 58.0451 52.0249 57.9275 52.0249C57.8317 52.0249 57.7501 52.0133 57.6826 51.9902C57.6151 51.9671 57.5596 51.9385 57.5161 51.9043L57.2613 51.6934ZM67.3459 52.6215C67.1281 52.7239 66.8016 52.7751 66.3662 52.7751C66.1528 52.7751 65.9645 52.7616 65.8012 52.7345C65.6379 52.7074 65.5018 52.6692 65.393 52.62C65.2841 52.5708 65.2014 52.512 65.1448 52.4437C65.0882 52.3754 65.0599 52.3011 65.0599 52.2207C65.0599 52.052 65.1698 51.9184 65.3897 51.82C65.6096 51.7215 65.9351 51.6723 66.3662 51.6723C66.8016 51.6723 67.1281 51.7215 67.3459 51.82C67.5636 51.9184 67.6724 52.052 67.6724 52.2207C67.6724 52.3854 67.5636 52.519 67.3459 52.6215ZM68.3191 54.4896C68.3191 54.4213 68.2766 54.3666 68.1917 54.3254C68.1068 54.2842 67.9925 54.2521 67.8488 54.229C67.7051 54.2059 67.5375 54.1888 67.3459 54.1778C67.1543 54.1667 66.9508 54.1587 66.7352 54.1537L66.0755 54.1386C65.8513 54.1336 65.6347 54.124 65.4257 54.11C65.2167 54.1602 65.0458 54.2204 64.913 54.2908C64.7802 54.3611 64.7137 54.4424 64.7137 54.5348C64.7137 54.5951 64.7475 54.6513 64.815 54.7036C64.8825 54.7558 64.987 54.801 65.1285 54.8392C65.27 54.8773 65.4507 54.9075 65.6706 54.9296C65.8905 54.9517 66.155 54.9627 66.4642 54.9627C67.0825 54.9627 67.5462 54.9185 67.8554 54.8301C68.1645 54.7417 68.3191 54.6282 68.3191 54.4896ZM69.7298 51.6181V51.377H67.8684C67.4416 51.2665 66.9409 51.2113 66.3661 51.2113C65.9917 51.2113 65.6466 51.2344 65.3309 51.2806C65.0152 51.3268 64.742 51.3931 64.5112 51.4795C64.2804 51.5658 64.1008 51.6703 63.9724 51.7928C63.8439 51.9154 63.7797 52.053 63.7797 52.2056C63.7797 52.3925 63.8755 52.5557 64.0671 52.6953C64.2587 52.8349 64.5199 52.9469 64.8508 53.0313C64.5635 53.0996 64.3479 53.1829 64.2042 53.2814C64.0605 53.3798 63.9887 53.4742 63.9887 53.5646C63.9887 53.6791 64.0442 53.7715 64.1553 53.8418C64.2663 53.9121 64.4132 53.9674 64.5961 54.0075C64.2565 54.0658 63.9876 54.1461 63.7895 54.2486C63.5914 54.351 63.4923 54.4746 63.4923 54.6192C63.4923 54.7257 63.5522 54.8281 63.6719 54.9266C63.7917 55.025 63.9746 55.1119 64.2206 55.1872C64.4666 55.2625 64.7736 55.3223 65.1415 55.3665C65.5094 55.4107 65.9416 55.4328 66.438 55.4328C66.9387 55.4328 67.385 55.4031 67.7769 55.3439C68.1688 55.2846 68.5008 55.2058 68.773 55.1073C69.0451 55.0089 69.253 54.8964 69.3967 54.7699C69.5404 54.6433 69.6122 54.5137 69.6122 54.3812C69.6122 54.2365 69.5491 54.119 69.4228 54.0286C69.2966 53.9382 69.13 53.8664 68.9232 53.8132C68.7164 53.7599 68.4801 53.7218 68.2145 53.6987C67.9489 53.6756 67.6789 53.659 67.4046 53.649C67.1303 53.6389 66.8603 53.6319 66.5947 53.6279C66.3291 53.6239 66.0929 53.6148 65.8861 53.6008C65.6792 53.5867 65.5127 53.5636 65.3864 53.5314C65.2602 53.4993 65.197 53.4501 65.197 53.3838C65.197 53.3436 65.2275 53.3045 65.2885 53.2663C65.3494 53.2281 65.443 53.192 65.5693 53.1578C65.6956 53.1699 65.8251 53.1794 65.9579 53.1864C66.0907 53.1935 66.2268 53.197 66.3661 53.197C66.7319 53.197 67.0715 53.1739 67.385 53.1277C67.6985 53.0815 67.9685 53.0152 68.1949 52.9288C68.4214 52.8424 68.5988 52.738 68.7272 52.6154C68.8557 52.4929 68.9199 52.3563 68.9199 52.2056C68.9199 52.063 68.8633 51.9335 68.7501 51.8169L69.4163 51.7657C69.6253 51.7476 69.7298 51.6984 69.7298 51.6181ZM75.2097 52.4558C75.2097 52.3473 75.1759 52.2463 75.1085 52.1529C75.041 52.0595 74.9419 51.9782 74.8113 51.9089C74.6806 51.8396 74.5184 51.7853 74.3247 51.7461C74.1309 51.707 73.9078 51.6874 73.6552 51.6874C73.1458 51.6874 72.7452 51.7547 72.4534 51.8893C72.1617 52.0239 71.9766 52.2127 71.8983 52.4558H75.2097ZM72.0354 53.307C71.9353 53.1794 71.8765 53.0282 71.8591 52.8535H76.1371C76.2634 52.8535 76.3505 52.8364 76.3984 52.8023C76.4463 52.7681 76.4702 52.7008 76.4702 52.6004C76.4702 52.3814 76.3995 52.1861 76.258 52.0143C76.1165 51.8426 75.9194 51.6974 75.6669 51.5789C75.4143 51.4604 75.1139 51.3705 74.7655 51.3092C74.4172 51.248 74.0384 51.2173 73.6291 51.2173C73.137 51.2173 72.6962 51.257 72.3065 51.3363C71.9167 51.4157 71.5858 51.5237 71.3137 51.6603C71.0415 51.7969 70.8325 51.9576 70.6867 52.1424C70.5408 52.3272 70.4679 52.526 70.4679 52.739C70.4679 53.0061 70.5495 53.2422 70.7128 53.4471C70.8761 53.652 71.1025 53.8237 71.3921 53.9623C71.6816 54.1009 72.0234 54.2059 72.4175 54.2772C72.8116 54.3485 73.2394 54.3842 73.7009 54.3842C73.9361 54.3842 74.1777 54.3756 74.4259 54.3586C74.6741 54.3415 74.9158 54.3134 75.1509 54.2742C75.386 54.235 75.6081 54.1843 75.8171 54.122C76.0261 54.0598 76.2133 53.9834 76.3788 53.893L75.9804 53.655C75.9194 53.6148 75.8323 53.5947 75.7191 53.5947C75.632 53.5947 75.5362 53.6093 75.4317 53.6384C75.3272 53.6675 75.201 53.6997 75.0529 53.7348C74.9049 53.77 74.7307 53.8021 74.5304 53.8313C74.3301 53.8604 74.0928 53.8749 73.8185 53.8749C73.5311 53.8749 73.2709 53.8544 73.038 53.8132C72.805 53.772 72.6047 53.7092 72.4371 53.6249C72.2694 53.5405 72.1356 53.4345 72.0354 53.307Z" fill="white"/>
<path d="M43.6787 180.226H292.688C292.914 180.226 293.097 180.142 293.097 180.038C293.097 179.934 292.914 179.849 292.688 179.849H43.6787C43.4533 179.849 43.2705 179.934 43.2705 180.038C43.2705 180.142 43.4533 180.226 43.6787 180.226Z" fill="#3E3C6D"/>
</svg>
