<svg width="100" height="100" viewBox="0 0 100 100" fill="none" xmlns="http://www.w3.org/2000/svg">
<path d="M76.6663 31.6664V43.333C76.6663 44.148 77.2563 44.843 78.0579 44.9763L86.6662 46.4113V58.3329C86.0345 58.3329 85.4579 58.6896 85.1745 59.2546L83.9695 61.6662H81.0296L80.3612 60.3279L81.1779 59.5112L78.8212 57.1546L77.1546 58.8212C76.6479 59.3279 76.5213 60.1029 76.8413 60.7446L78.5079 64.0779C78.7912 64.6429 79.3679 64.9995 79.9996 64.9995H84.9995C85.6312 64.9995 86.2079 64.6429 86.4912 64.0779L87.6962 61.6662H88.9695L90.1762 64.0779C90.4578 64.6429 91.0345 64.9995 91.6662 64.9995H96.6661C97.2978 64.9995 97.8744 64.6429 98.1578 64.0779L99.8244 60.7446C100.144 60.1029 100.019 59.3279 99.5111 58.8212L97.8444 57.1546L95.4878 59.5112L96.3045 60.3279L95.6361 61.6662H92.6962L91.4895 59.2546C91.2078 58.6896 90.6312 58.3329 89.9995 58.3329V46.4113L98.6078 44.9763C99.4094 44.843 99.9994 44.148 99.9994 43.333V31.6664C99.9994 31.4081 99.9394 31.1514 99.8244 30.9214L95.1328 21.5398L98.2478 12.1949C98.5394 11.3216 98.0678 10.3783 97.1945 10.0866L93.3328 8.79827V6.66662C93.3328 5.74663 92.5862 4.99996 91.6662 4.99996H89.9995V0H86.6662V4.99996H84.9995C84.0795 4.99996 83.3329 5.74663 83.3329 6.66662V8.79827L79.4729 10.0849C78.5996 10.3766 78.1279 11.3199 78.4196 12.1932L81.5346 21.5382L76.8429 30.9198C76.7263 31.1514 76.6663 31.4081 76.6663 31.6664ZM79.9996 32.0598L84.8245 22.4115C85.0229 22.0165 85.0545 21.5582 84.9145 21.1382L82.1079 12.7199L85.5262 11.5799C86.2079 11.3533 86.6662 10.7183 86.6662 9.99993V8.33327H89.9995V9.99993C89.9995 10.7183 90.4578 11.3533 91.1395 11.5816L94.5578 12.7216L91.7512 21.1398C91.6112 21.5598 91.6445 22.0165 91.8412 22.4132L96.6661 32.0598V41.9214L88.3328 43.3097L79.9996 41.9214V32.0598Z" fill="white"/>
<path d="M1.66665 69.9996H9.99993V98.3327C9.99993 99.2527 10.7466 99.9993 11.6666 99.9993H34.9998C35.9197 99.9993 36.6664 99.2527 36.6664 98.3327V69.9996H44.9997C45.9197 69.9996 46.6663 69.2529 46.6663 68.3329V51.6663C46.6663 45.2331 41.433 39.9998 34.9998 39.9998H31.4831C33.6498 37.8798 34.9998 34.9298 34.9998 31.6665C34.9998 25.2332 29.7665 19.9999 23.3332 19.9999C16.8999 19.9999 11.6666 25.2332 11.6666 31.6665C11.6666 34.9298 13.0166 37.8798 15.1832 39.9998H11.6666C5.2333 39.9998 0 45.2331 0 51.6663V68.3329C0 69.2529 0.746661 69.9996 1.66665 69.9996ZM14.9999 31.6665C14.9999 27.0715 18.7382 23.3332 23.3332 23.3332C27.9281 23.3332 31.6664 27.0715 31.6664 31.6665C31.6664 36.2615 27.9281 39.9998 23.3332 39.9998C18.7382 39.9998 14.9999 36.2615 14.9999 31.6665ZM3.33331 51.6663C3.33331 47.0714 7.07162 43.3331 11.6666 43.3331H34.9998C39.5947 43.3331 43.333 47.0714 43.333 51.6663V66.6662H36.6664V51.6663H33.3331V68.3329V96.666H24.9998V71.6662H21.6665V96.666H13.3332V68.3329V51.6663H9.99993V66.6662H3.33331V51.6663Z" fill="white"/>
<path d="M61.6665 14.9998H58.3332V18.3331H61.6665V14.9998Z" fill="white"/>
<path d="M61.666 21.6666H58.3327V25H61.666V21.6666Z" fill="white"/>
<path d="M61.666 28.3329H58.3327V31.6662H61.666V28.3329Z" fill="white"/>
<path d="M61.666 34.9997H58.3327V38.333H61.666V34.9997Z" fill="white"/>
<path d="M61.666 41.666H58.3327V44.9993H61.666V41.666Z" fill="white"/>
<path d="M61.6665 8.33358H58.3332V11.6669H61.6665V8.33358Z" fill="white"/>
<path d="M61.6665 1.66674H58.3332V5.00005H61.6665V1.66674Z" fill="white"/>
<path d="M61.666 48.3328H58.3327V51.6661H61.666V48.3328Z" fill="white"/>
<path d="M68.333 1.66674H64.9997V5.00005H68.333V1.66674Z" fill="white"/>
<path d="M68.333 48.3328H64.9997V51.6661H68.333V48.3328Z" fill="white"/>
<path d="M74.9995 1.66674H71.6662V5.00005H74.9995V1.66674Z" fill="white"/>
<path d="M74.9995 48.3328H71.6662V51.6661H74.9995V48.3328Z" fill="white"/>
<path d="M81.6659 1.66674H78.3326V5.00005H81.6659V1.66674Z" fill="white"/>
</svg>
