<svg width="22" height="23" viewBox="0 0 22 23" fill="none" xmlns="http://www.w3.org/2000/svg">
<path d="M10.9524 1.91675C5.91427 1.91675 1.82538 6.21008 1.82538 11.5001C1.82538 16.7901 5.91427 21.0834 10.9524 21.0834C15.9905 21.0834 20.0793 16.7901 20.0793 11.5001C20.0793 6.21008 15.9905 1.91675 10.9524 1.91675ZM10.9524 4.79175C12.4674 4.79175 13.6905 6.07591 13.6905 7.66675C13.6905 9.25758 12.4674 10.5417 10.9524 10.5417C9.43728 10.5417 8.21427 9.25758 8.21427 7.66675C8.21427 6.07591 9.43728 4.79175 10.9524 4.79175ZM10.9524 18.4001C8.67062 18.4001 6.65355 17.1734 5.47617 15.3142C5.50355 13.4072 9.12696 12.3626 10.9524 12.3626C12.7686 12.3626 16.4012 13.4072 16.4286 15.3142C15.2512 17.1734 13.2341 18.4001 10.9524 18.4001Z" fill="#191D21"/>
</svg>
