<svg width="23" height="23" viewBox="0 0 23 23" fill="none" xmlns="http://www.w3.org/2000/svg">
<path d="M11.4998 1.9165C6.20984 1.9165 1.9165 6.20984 1.9165 11.4998C1.9165 16.7898 6.20984 21.0832 11.4998 21.0832C16.7898 21.0832 21.0832 16.7898 21.0832 11.4998C21.0832 6.20984 16.7898 1.9165 11.4998 1.9165ZM11.4998 4.7915C13.0907 4.7915 14.3748 6.07567 14.3748 7.6665C14.3748 9.25734 13.0907 10.5415 11.4998 10.5415C9.909 10.5415 8.62484 9.25734 8.62484 7.6665C8.62484 6.07567 9.909 4.7915 11.4998 4.7915ZM11.4998 18.3998C9.104 18.3998 6.98609 17.1732 5.74984 15.314C5.77859 13.4069 9.58317 12.3623 11.4998 12.3623C13.4069 12.3623 17.2211 13.4069 17.2498 15.314C16.0136 17.1732 13.8957 18.3998 11.4998 18.3998Z" fill="#191D21"/>
</svg>
