<svg width="280" height="58" viewBox="0 0 280 58" fill="none" xmlns="http://www.w3.org/2000/svg">
<path d="M0 22C0 9.84974 9.84974 0 22 0H258C270.15 0 280 9.84974 280 22V36C280 48.1503 270.15 58 258 58H22C9.84974 58 0 48.1503 0 36V22Z" fill="#2574FF"/>
<path d="M101.673 32.064H115.081V33.792H101.673V32.064ZM107.289 29.264H109.417V32.768H107.289V29.264ZM103.177 21.568H113.577V26.496H105.321V28.992H103.209V24.832H111.465V23.248H103.177V21.568ZM103.209 28.144H113.913V29.856H103.209V28.144Z" fill="white"/>
<path d="M118.751 21.968H128.143V23.648H118.751V21.968ZM117.391 31.76H130.783V33.488H117.391V31.76ZM127.023 21.968H129.135V23.728C129.135 25.808 129.135 27.824 128.607 30.864L126.479 30.688C127.023 27.84 127.023 25.728 127.023 23.728V21.968Z" fill="white"/>
<path d="M143.27 20.624H145.414V31.264H143.27V20.624ZM135.542 33.472H145.782V35.168H135.542V33.472ZM135.542 30.192H137.67V34.16H135.542V30.192ZM137.35 21.552C139.622 21.552 141.366 23.12 141.366 25.312C141.366 27.488 139.622 29.072 137.35 29.072C135.078 29.072 133.318 27.488 133.318 25.312C133.318 23.12 135.078 21.552 137.35 21.552ZM137.35 23.392C136.246 23.392 135.398 24.096 135.398 25.312C135.398 26.512 136.246 27.216 137.35 27.216C138.438 27.216 139.286 26.512 139.286 25.312C139.286 24.096 138.438 23.392 137.35 23.392Z" fill="white"/>
<path d="M158.317 20.608H160.429V35.424H158.317V20.608ZM159.949 26.384H162.573V28.16H159.949V26.384ZM148.749 22.8H157.373V24.496H148.749V22.8ZM153.085 25.328C155.245 25.328 156.845 26.8 156.845 28.864C156.845 30.928 155.245 32.4 153.085 32.4C150.925 32.4 149.325 30.928 149.325 28.864C149.325 26.8 150.925 25.328 153.085 25.328ZM153.085 27.056C152.077 27.056 151.357 27.728 151.357 28.864C151.357 30 152.077 30.672 153.085 30.672C154.093 30.672 154.813 30 154.813 28.864C154.813 27.728 154.093 27.056 153.085 27.056ZM152.013 20.848H154.141V23.44H152.013V20.848Z" fill="white"/>
<path d="M174.74 20.608H176.884V35.424H174.74V20.608ZM170.372 22.144H172.484C172.484 26.672 170.948 30.384 165.684 32.928L164.58 31.232C168.836 29.184 170.372 26.496 170.372 22.528V22.144ZM165.364 22.144H171.38V23.824H165.364V22.144Z" fill="white"/>
</svg>
