<svg width="19" height="13" viewBox="0 0 19 13" fill="none" xmlns="http://www.w3.org/2000/svg">
<path fill-rule="evenodd" clip-rule="evenodd" d="M8.79938 12.4743H10.2053C10.5184 12.1458 10.8934 11.8615 11.3173 11.6345C12.9696 10.7499 15.7933 10.7019 17.3374 11.7458H17.974H18.9999V10.72V2.30813C18.9999 2.30813 18.1092 0 14.0599 0C11.9085 0 10.7559 0.651551 10.1482 1.26231C9.7497 1.66281 9.58543 2.04577 9.52737 2.21597H9.47249C9.41442 2.04577 9.25016 1.66281 8.85164 1.26231C8.24391 0.651551 7.0914 0 4.93996 0C0.890618 0 0 2.30813 0 2.30813V10.7097V11.7356H1.02584H1.66249C3.20788 10.6908 6.03398 10.7407 7.68514 11.6284C8.11044 11.8571 8.48615 12.1435 8.79938 12.4743ZM10.0129 2.52972V11.2662C10.2674 11.0655 10.542 10.886 10.8331 10.7301C11.8449 10.1884 13.1424 9.93232 14.3753 9.94116C15.488 9.94913 16.6739 10.1742 17.6289 10.72H17.974V2.56204C17.9662 2.5498 17.9576 2.53687 17.9484 2.52331C17.8531 2.38277 17.6845 2.17442 17.4116 1.95834C16.8805 1.53784 15.8753 1.02584 14.0599 1.02584C12.2416 1.02584 11.3636 1.53795 10.952 1.91263C10.7372 2.10819 10.6181 2.2943 10.5555 2.41617C10.524 2.47755 10.5067 2.52289 10.4991 2.54485C10.4953 2.55577 10.494 2.56066 10.4946 2.55854L10.4968 2.54986L10.4989 2.54128L10.5002 2.53588L10.5008 2.53289L10.5012 2.53133C10.5012 2.53119 10.5012 2.53105 10.4959 2.52972H10.0129ZM8.98708 2.52972H8.50397C8.4986 2.53105 8.49863 2.53119 8.49867 2.53133L8.49902 2.53289L8.49969 2.53588L8.50094 2.54128L8.50302 2.54986L8.50529 2.55854L8.50542 2.55902C8.50542 2.55902 8.504 2.5541 8.50079 2.54485C8.49318 2.52289 8.47589 2.47755 8.44436 2.41617C8.38176 2.2943 8.26266 2.10819 8.04785 1.91263C7.6363 1.53795 6.75824 1.02584 4.93996 1.02584C3.12452 1.02584 2.11937 1.53784 1.58825 1.95834C1.31533 2.17442 1.14673 2.38277 1.05141 2.52331C1.04221 2.53687 1.0337 2.5498 1.02584 2.56205V10.7097H1.37096C2.32686 10.1634 3.51399 9.93868 4.62752 9.93148C5.8612 9.9235 7.15938 10.181 8.17093 10.7249C8.46063 10.8807 8.73388 11.0598 8.98708 11.26V2.52972Z" fill="black"/>
</svg>
