<svg width="100" height="100" viewBox="0 0 100 100" fill="none" xmlns="http://www.w3.org/2000/svg">
<path d="M75.6042 37.0209H24.375C19.4044 37.0209 15.375 41.0503 15.375 46.0209V81.625C15.375 86.5956 19.4044 90.625 24.375 90.625H75.6042C80.5747 90.625 84.6042 86.5956 84.6042 81.625V46.0209C84.6042 41.0503 80.5747 37.0209 75.6042 37.0209Z" fill="#AC0491" fill-opacity="0.72" stroke="#484343" stroke-width="2" stroke-linecap="round" stroke-linejoin="round"/>
<path d="M27.8125 37.0208V31.5833C27.8125 25.6933 30.1523 20.0445 34.3172 15.8797C38.482 11.7148 44.1308 9.375 50.0208 9.375C55.9108 9.375 61.5596 11.7148 65.7245 15.8797C69.8894 20.0445 72.2292 25.6933 72.2292 31.5833V37.0208" stroke="#AC0491" stroke-opacity="0.72" stroke-width="4" stroke-linecap="round" stroke-linejoin="round"/>
<path d="M27.8125 37.0208V31.5833C27.8125 25.6933 30.1523 20.0445 34.3172 15.8797C38.482 11.7148 44.1308 9.375 50.0208 9.375C55.9108 9.375 61.5596 11.7148 65.7245 15.8797C69.8894 20.0445 72.2292 25.6933 72.2292 31.5833V37.0208" stroke="black" stroke-opacity="0.5" stroke-width="4" stroke-linecap="round" stroke-linejoin="round"/>
<circle cx="50" cy="65" r="15" fill="#D9D9D9"/>
<path d="M41 60V70L59 60" stroke="#484343" stroke-width="4"/>
</svg>
