<svg width="49" height="49" viewBox="0 0 49 49" fill="none" xmlns="http://www.w3.org/2000/svg">
<g clip-path="url(#clip0_10_2425)">
<path d="M24.4999 6.12487C22.8755 6.12487 21.3176 6.77018 20.1689 7.91883C19.0202 9.06749 18.3749 10.6254 18.3749 12.2499V20.4165C18.3749 22.041 19.0202 23.5989 20.1689 24.7475C21.3176 25.8962 22.8755 26.5415 24.4999 26.5415C26.1244 26.5415 27.6823 25.8962 28.8309 24.7475C29.9796 23.5989 30.6249 22.041 30.6249 20.4165V12.2499C30.6249 10.6254 29.9796 9.06749 28.8309 7.91883C27.6823 6.77018 26.1244 6.12487 24.4999 6.12487ZM24.4999 2.04154C25.8405 2.04154 27.1679 2.30559 28.4065 2.8186C29.645 3.33162 30.7704 4.08356 31.7183 5.03149C32.6662 5.97942 33.4182 7.10477 33.9312 8.3433C34.4442 9.58183 34.7082 10.9093 34.7082 12.2499V20.4165C34.7082 23.1239 33.6327 25.7204 31.7183 27.6349C29.8039 29.5493 27.2073 30.6248 24.4999 30.6248C21.7925 30.6248 19.196 29.5493 17.2816 27.6349C15.3671 25.7204 14.2916 23.1239 14.2916 20.4165V12.2499C14.2916 9.54244 15.3671 6.94592 17.2816 5.03149C19.196 3.11706 21.7925 2.04154 24.4999 2.04154ZM6.23726 22.4582H10.3512C10.8459 25.8571 12.5478 28.9643 15.1455 31.2113C17.7432 33.4583 21.0632 34.695 24.4979 34.695C27.9326 34.695 31.2525 33.4583 33.8503 31.2113C36.448 28.9643 38.1499 25.8571 38.6446 22.4582H42.7606C42.2963 26.6001 40.4384 30.4614 37.4915 33.4087C34.5445 36.356 30.6835 38.2144 26.5416 38.6792V46.9581H22.4583V38.6792C18.316 38.2149 14.4545 36.3566 11.5071 33.4093C8.55979 30.4619 6.70156 26.6004 6.23726 22.4582Z" fill="black"/>
</g>
<defs>
<clipPath id="clip0_10_2425">
<rect width="48.0614" height="48.0614" fill="white" transform="scale(1.01953)"/>
</clipPath>
</defs>
</svg>
