<svg width="22" height="23" viewBox="0 0 22 23" fill="none" xmlns="http://www.w3.org/2000/svg">
<path d="M16.4286 7.66658H15.5159V5.74992C15.5159 3.10492 13.4715 0.958252 10.9524 0.958252C8.43336 0.958252 6.38891 3.10492 6.38891 5.74992V7.66658H5.47621C4.47225 7.66658 3.65082 8.52909 3.65082 9.58325V19.1666C3.65082 20.2208 4.47225 21.0833 5.47621 21.0833H16.4286C17.4326 21.0833 18.254 20.2208 18.254 19.1666V9.58325C18.254 8.52909 17.4326 7.66658 16.4286 7.66658ZM10.9524 16.2916C9.94844 16.2916 9.12701 15.4291 9.12701 14.3749C9.12701 13.3208 9.94844 12.4583 10.9524 12.4583C11.9564 12.4583 12.7778 13.3208 12.7778 14.3749C12.7778 15.4291 11.9564 16.2916 10.9524 16.2916ZM13.7818 7.66658H8.12304V5.74992C8.12304 4.11117 9.39169 2.77909 10.9524 2.77909C12.5131 2.77909 13.7818 4.11117 13.7818 5.74992V7.66658Z" fill="#191D21"/>
</svg>
