<svg width="25" height="25" viewBox="0 0 25 25" fill="none" xmlns="http://www.w3.org/2000/svg">
<path d="M12.5 18.7082C11.9474 18.7082 11.4175 18.4887 11.0268 18.098C10.6361 17.7073 10.4166 17.1774 10.4166 16.6248C10.4166 15.4686 11.3437 14.5415 12.5 14.5415C13.0525 14.5415 13.5824 14.761 13.9731 15.1517C14.3638 15.5424 14.5833 16.0723 14.5833 16.6248C14.5833 17.1774 14.3638 17.7073 13.9731 18.098C13.5824 18.4887 13.0525 18.7082 12.5 18.7082ZM18.75 21.8332V11.4165H6.24996V21.8332H18.75ZM18.75 9.33317C19.3025 9.33317 19.8324 9.55266 20.2231 9.94337C20.6138 10.3341 20.8333 10.864 20.8333 11.4165V21.8332C20.8333 22.3857 20.6138 22.9156 20.2231 23.3063C19.8324 23.697 19.3025 23.9165 18.75 23.9165H6.24996C5.69742 23.9165 5.16752 23.697 4.77682 23.3063C4.38612 22.9156 4.16663 22.3857 4.16663 21.8332V11.4165C4.16663 10.2603 5.09371 9.33317 6.24996 9.33317H7.29163V7.24984C7.29163 5.8685 7.84036 4.54374 8.81711 3.56699C9.79386 2.59024 11.1186 2.0415 12.5 2.0415C13.1839 2.0415 13.8612 2.17622 14.4931 2.43796C15.125 2.69971 15.6992 3.08335 16.1828 3.56699C16.6664 4.05063 17.0501 4.62479 17.3118 5.25669C17.5736 5.8886 17.7083 6.56587 17.7083 7.24984V9.33317H18.75ZM12.5 4.12484C11.6712 4.12484 10.8763 4.45408 10.2902 5.04013C9.7042 5.62618 9.37496 6.42104 9.37496 7.24984V9.33317H15.625V7.24984C15.625 6.42104 15.2957 5.62618 14.7097 5.04013C14.1236 4.45408 13.3288 4.12484 12.5 4.12484Z" fill="black"/>
</svg>
