<svg width="23" height="23" viewBox="0 0 23 23" fill="none" xmlns="http://www.w3.org/2000/svg">
<g clip-path="url(#clip0_2052_4245)">
<path d="M5.64379 15.3335H1.91683C1.66266 15.3335 1.41891 15.2325 1.23919 15.0528C1.05946 14.8731 0.958496 14.6293 0.958496 14.3752V8.62518C0.958496 8.37102 1.05946 8.12726 1.23919 7.94754C1.41891 7.76782 1.66266 7.66685 1.91683 7.66685H5.64379L10.7172 3.51535C10.7874 3.4578 10.8725 3.42137 10.9626 3.41031C11.0527 3.39925 11.1441 3.41401 11.2261 3.45286C11.3082 3.49172 11.3775 3.55309 11.426 3.62981C11.4745 3.70653 11.5002 3.79545 11.5002 3.88622V19.1141C11.5002 19.2049 11.4745 19.2938 11.426 19.3706C11.3775 19.4473 11.3082 19.5086 11.2261 19.5475C11.1441 19.5864 11.0527 19.6011 10.9626 19.5901C10.8725 19.579 10.7874 19.5426 10.7172 19.485L5.64475 15.3335H5.64379ZM18.5976 19.2953L17.2406 17.9383C18.149 17.1299 18.8759 16.1382 19.3731 15.0285C19.8703 13.9187 20.1266 12.7162 20.1252 11.5002C20.1264 10.2219 19.8428 8.95931 19.2951 7.80425C18.7474 6.64919 17.9493 5.63062 16.9588 4.82252L18.3197 3.46168C19.4874 4.45025 20.4254 5.68165 21.0682 7.06999C21.7111 8.45834 22.0433 9.97022 22.0418 11.5002C22.0418 14.5889 20.7136 17.3671 18.5976 19.2953ZM15.2022 15.8999L13.8395 14.5371C14.3047 14.1794 14.6814 13.7194 14.9405 13.1928C15.1996 12.6662 15.334 12.0871 15.3335 11.5002C15.3335 10.1298 14.6147 8.92706 13.5318 8.24952L14.9109 6.87048C15.6368 7.40445 16.2268 8.10179 16.6332 8.90609C17.0396 9.71038 17.2509 10.599 17.2502 11.5002C17.2502 13.2654 16.4547 14.8448 15.2022 15.8999Z" fill="black"/>
</g>
<defs>
<clipPath id="clip0_2052_4245">
<rect width="23" height="23" fill="white"/>
</clipPath>
</defs>
</svg>
