<svg width="24" height="23" viewBox="0 0 24 23" fill="none" xmlns="http://www.w3.org/2000/svg">
<path d="M12.3333 16.6667C12.8859 16.6667 13.4158 16.4472 13.8065 16.0565C14.1972 15.6658 14.4167 15.1359 14.4167 14.5833C14.4167 14.0308 14.1972 13.5009 13.8065 13.1102C13.4158 12.7195 12.8859 12.5 12.3333 12.5C11.7808 12.5 11.2509 12.7195 10.8602 13.1102C10.4695 13.5009 10.25 14.0308 10.25 14.5833C10.25 15.1359 10.4695 15.6658 10.8602 16.0565C11.2509 16.4472 11.7808 16.6667 12.3333 16.6667ZM18.5833 7.29167C19.1359 7.29167 19.6658 7.51116 20.0565 7.90186C20.4472 8.29256 20.6667 8.82246 20.6667 9.375V19.7917C20.6667 20.3442 20.4472 20.8741 20.0565 21.2648C19.6658 21.6555 19.1359 21.875 18.5833 21.875H6.08333C5.5308 21.875 5.00089 21.6555 4.61019 21.2648C4.21949 20.8741 4 20.3442 4 19.7917V9.375C4 8.82246 4.21949 8.29256 4.61019 7.90186C5.00089 7.51116 5.5308 7.29167 6.08333 7.29167H7.125V5.20833C7.125 3.827 7.67373 2.50224 8.65049 1.52549C9.62724 0.548733 10.952 0 12.3333 0C13.0173 0 13.6946 0.134718 14.3265 0.396461C14.9584 0.658204 15.5325 1.04185 16.0162 1.52549C16.4998 2.00912 16.8835 2.58329 17.1452 3.21519C17.4069 3.84709 17.5417 4.52436 17.5417 5.20833V7.29167H18.5833ZM12.3333 2.08333C11.5045 2.08333 10.7097 2.41257 10.1236 2.99862C9.53757 3.58468 9.20833 4.37953 9.20833 5.20833V7.29167H15.4583V5.20833C15.4583 4.37953 15.1291 3.58468 14.543 2.99862C13.957 2.41257 13.1621 2.08333 12.3333 2.08333Z" fill="black"/>
</svg>
