<svg width="60" height="60" viewBox="0 0 60 60" fill="none" xmlns="http://www.w3.org/2000/svg">
<g clip-path="url(#clip0_2114_2184)">
<path d="M22.5 32.5C28.0228 32.5 32.5 28.0228 32.5 22.5C32.5 16.9772 28.0228 12.5 22.5 12.5C16.9772 12.5 12.5 16.9772 12.5 22.5C12.5 28.0228 16.9772 32.5 22.5 32.5Z" fill="#FF000F" fill-opacity="0.4"/>
<path d="M22.5 37.5C15.825 37.5 2.5 40.85 2.5 47.5V52.5H42.5V47.5C42.5 40.85 29.175 37.5 22.5 37.5ZM41.9 13.4L37.7 17.625C39.8 20.575 39.8 24.4 37.7 27.35L41.9 31.575C46.95 26.525 46.95 18.9 41.9 13.4ZM50.175 5L46.1 9.075C53.025 16.625 53.025 27.975 46.1 35.925L50.175 40C59.925 30.275 59.95 15.125 50.175 5Z" fill="#FF000F" fill-opacity="0.4"/>
</g>
<defs>
<clipPath id="clip0_2114_2184">
<rect width="60" height="60" fill="white"/>
</clipPath>
</defs>
</svg>
