<svg width="24" height="22" viewBox="0 0 24 22" fill="none" xmlns="http://www.w3.org/2000/svg">
<path d="M19.5714 4H2.42857C2.04969 4 1.68633 4.17911 1.41842 4.49792C1.15051 4.81673 1 5.24913 1 5.7V19.3C1 19.7509 1.15051 20.1833 1.41842 20.5021C1.68633 20.8209 2.04969 21 2.42857 21H19.5714C19.9503 21 20.3137 20.8209 20.5816 20.5021C20.8495 20.1833 21 19.7509 21 19.3V5.7C21 5.24913 20.8495 4.81673 20.5816 4.49792C20.3137 4.17911 19.9503 4 19.5714 4ZM18 5.7L11 11.463L4 5.7H18ZM2.42857 19.3V6.4735L10.5929 13.197C10.7124 13.2957 10.8545 13.3486 11 13.3486C11.1455 13.3486 11.2876 13.2957 11.4071 13.197L19.5714 6.4735V19.3H2.42857Z" fill="#484343"/>
</svg>
