<svg width="23" height="23" viewBox="0 0 23 23" fill="none" xmlns="http://www.w3.org/2000/svg">
<path d="M17.2502 7.66683H16.2918V5.75016C16.2918 3.10516 14.1452 0.958496 11.5002 0.958496C8.85516 0.958496 6.7085 3.10516 6.7085 5.75016V7.66683H5.75016C4.696 7.66683 3.8335 8.52933 3.8335 9.5835V19.1668C3.8335 20.221 4.696 21.0835 5.75016 21.0835H17.2502C18.3043 21.0835 19.1668 20.221 19.1668 19.1668V9.5835C19.1668 8.52933 18.3043 7.66683 17.2502 7.66683ZM11.5002 16.2918C10.446 16.2918 9.5835 15.4293 9.5835 14.3752C9.5835 13.321 10.446 12.4585 11.5002 12.4585C12.5543 12.4585 13.4168 13.321 13.4168 14.3752C13.4168 15.4293 12.5543 16.2918 11.5002 16.2918ZM14.471 7.66683H8.52933V5.75016C8.52933 4.11141 9.86141 2.77933 11.5002 2.77933C13.1389 2.77933 14.471 4.11141 14.471 5.75016V7.66683Z" fill="#191D21"/>
</svg>
