<svg width="288" height="66" viewBox="0 0 288 66" fill="none" xmlns="http://www.w3.org/2000/svg">
<g filter="url(#filter0_d_10_2059)">
<path d="M4 22C4 9.84974 13.8497 0 26 0H262C274.15 0 284 9.84974 284 22V36C284 48.1503 274.15 58 262 58H26C13.8497 58 4 48.1503 4 36V22Z" fill="#2574FF"/>
<path d="M105.673 32.064H119.081V33.792H105.673V32.064ZM111.289 29.264H113.417V32.768H111.289V29.264ZM107.177 21.568H117.577V26.496H109.321V28.992H107.209V24.832H115.465V23.248H107.177V21.568ZM107.209 28.144H117.913V29.856H107.209V28.144Z" fill="white"/>
<path d="M122.751 21.968H132.143V23.648H122.751V21.968ZM121.391 31.76H134.783V33.488H121.391V31.76ZM131.023 21.968H133.135V23.728C133.135 25.808 133.135 27.824 132.607 30.864L130.479 30.688C131.023 27.84 131.023 25.728 131.023 23.728V21.968Z" fill="white"/>
<path d="M147.27 20.624H149.414V31.264H147.27V20.624ZM139.542 33.472H149.782V35.168H139.542V33.472ZM139.542 30.192H141.67V34.16H139.542V30.192ZM141.35 21.552C143.622 21.552 145.366 23.12 145.366 25.312C145.366 27.488 143.622 29.072 141.35 29.072C139.078 29.072 137.318 27.488 137.318 25.312C137.318 23.12 139.078 21.552 141.35 21.552ZM141.35 23.392C140.246 23.392 139.398 24.096 139.398 25.312C139.398 26.512 140.246 27.216 141.35 27.216C142.438 27.216 143.286 26.512 143.286 25.312C143.286 24.096 142.438 23.392 141.35 23.392Z" fill="white"/>
<path d="M162.317 20.608H164.429V35.424H162.317V20.608ZM163.949 26.384H166.573V28.16H163.949V26.384ZM152.749 22.8H161.373V24.496H152.749V22.8ZM157.085 25.328C159.245 25.328 160.845 26.8 160.845 28.864C160.845 30.928 159.245 32.4 157.085 32.4C154.925 32.4 153.325 30.928 153.325 28.864C153.325 26.8 154.925 25.328 157.085 25.328ZM157.085 27.056C156.077 27.056 155.357 27.728 155.357 28.864C155.357 30 156.077 30.672 157.085 30.672C158.093 30.672 158.813 30 158.813 28.864C158.813 27.728 158.093 27.056 157.085 27.056ZM156.013 20.848H158.141V23.44H156.013V20.848Z" fill="white"/>
<path d="M178.74 20.608H180.884V35.424H178.74V20.608ZM174.372 22.144H176.484C176.484 26.672 174.948 30.384 169.684 32.928L168.58 31.232C172.836 29.184 174.372 26.496 174.372 22.528V22.144ZM169.364 22.144H175.38V23.824H169.364V22.144Z" fill="white"/>
</g>
<defs>
<filter id="filter0_d_10_2059" x="0" y="0" width="288" height="66" filterUnits="userSpaceOnUse" color-interpolation-filters="sRGB">
<feFlood flood-opacity="0" result="BackgroundImageFix"/>
<feColorMatrix in="SourceAlpha" type="matrix" values="0 0 0 0 0 0 0 0 0 0 0 0 0 0 0 0 0 0 127 0" result="hardAlpha"/>
<feOffset dy="4"/>
<feGaussianBlur stdDeviation="2"/>
<feComposite in2="hardAlpha" operator="out"/>
<feColorMatrix type="matrix" values="0 0 0 0 0 0 0 0 0 0 0 0 0 0 0 0 0 0 0.25 0"/>
<feBlend mode="normal" in2="BackgroundImageFix" result="effect1_dropShadow_10_2059"/>
<feBlend mode="normal" in="SourceGraphic" in2="effect1_dropShadow_10_2059" result="shape"/>
</filter>
</defs>
</svg>
