<svg width="22" height="23" viewBox="0 0 22 23" fill="none" xmlns="http://www.w3.org/2000/svg">
<g clip-path="url(#clip0_10_3081)">
<path d="M5.3749 15.3333H1.82542C1.58336 15.3333 1.35121 15.2323 1.18004 15.0526C1.00888 14.8729 0.91272 14.6291 0.91272 14.3749V8.62494C0.91272 8.37077 1.00888 8.12702 1.18004 7.9473C1.35121 7.76757 1.58336 7.66661 1.82542 7.66661H5.3749L10.2067 3.51511C10.2736 3.45756 10.3546 3.42113 10.4404 3.41007C10.5262 3.399 10.6133 3.41376 10.6914 3.45262C10.7695 3.49148 10.8356 3.55284 10.8818 3.62956C10.928 3.70628 10.9525 3.79521 10.9524 3.88598V19.1139C10.9525 19.2047 10.928 19.2936 10.8818 19.3703C10.8356 19.447 10.7695 19.5084 10.6914 19.5473C10.6133 19.5861 10.5262 19.6009 10.4404 19.5898C10.3546 19.5788 10.2736 19.5423 10.2067 19.4848L5.37581 15.3333H5.3749ZM17.7118 19.295L16.4195 17.938C17.2847 17.1297 17.9769 16.138 18.4504 15.0282C18.9239 13.9185 19.1681 12.716 19.1667 11.4999C19.1678 10.2216 18.8978 8.95906 18.3762 7.804C17.8546 6.64894 17.0945 5.63037 16.1511 4.82227L17.4472 3.46144C18.5593 4.45 19.4526 5.6814 20.0648 7.06975C20.6771 8.4581 20.9935 9.96998 20.9921 11.4999C20.9921 14.5886 19.7271 17.3669 17.7118 19.295ZM14.4782 15.8996L13.1803 14.5369C13.6234 14.1792 13.9822 13.7192 14.2289 13.1926C14.4756 12.666 14.6037 12.0868 14.6032 11.4999C14.6032 10.1295 13.9187 8.92681 12.8873 8.24927L14.2007 6.87023C14.892 7.4042 15.4539 8.10155 15.841 8.90584C16.228 9.71014 16.4293 10.5988 16.4286 11.4999C16.4286 13.2652 15.6711 14.8445 14.4782 15.8996Z" fill="black"/>
</g>
<defs>
<clipPath id="clip0_10_3081">
<rect width="21.9048" height="23" rx="10" fill="white"/>
</clipPath>
</defs>
</svg>
